<?xml version="1.0" standalone="no"?>
<!DOCTYPE svg PUBLIC "-//W3C//DTD SVG 20010904//EN"
 "http://www.w3.org/TR/2001/REC-SVG-20010904/DTD/svg10.dtd">
<svg version="1.0" xmlns="http://www.w3.org/2000/svg"
 width="1639.000000pt" height="1639.000000pt" viewBox="0 0 1639.000000 1639.000000"
 preserveAspectRatio="xMidYMid meet">
<metadata>
Created by potrace 1.11, written by Peter Selinger 2001-2013
</metadata>
<g transform="translate(0.000000,1639.000000) scale(0.100000,-0.100000)"
fill="#000000" stroke="none">
<path d="M7861 16382 c-42 -7 -99 -50 -127 -98 -51 -88 -31 -219 44 -278 32
-26 78 -46 86 -39 3 4 6 2 6 -4 0 -16 -35 -260 -50 -353 -5 -30 -12 -68 -14
-85 -12 -71 -97 -572 -101 -595 -3 -14 -14 -72 -25 -130 -11 -58 -22 -116 -25
-130 -3 -14 -8 -38 -11 -55 -3 -16 -12 -64 -21 -105 -8 -41 -17 -86 -20 -100
-2 -14 -13 -63 -23 -110 -10 -47 -21 -96 -23 -110 -5 -22 -24 -112 -73 -335
-9 -38 -17 -77 -19 -85 -67 -316 -287 -1159 -416 -1594 -56 -186 -203 -661
-216 -696 -3 -8 -40 -116 -83 -240 -70 -204 -196 -551 -250 -690 -67 -172
-114 -290 -131 -327 -11 -23 -19 -46 -19 -51 0 -5 -6 -22 -14 -38 -8 -16 -49
-110 -91 -209 -43 -99 -95 -218 -116 -263 -21 -46 -39 -85 -39 -87 0 -6 -144
-304 -232 -480 -91 -182 -246 -469 -325 -603 -24 -41 -43 -75 -43 -77 0 -16
-330 -531 -439 -685 -17 -25 -50 -72 -73 -105 -23 -33 -44 -62 -48 -65 -3 -3
-17 -21 -30 -40 -13 -19 -27 -37 -30 -40 -4 -3 -26 -32 -50 -65 -24 -33 -46
-62 -50 -65 -3 -3 -30 -36 -60 -75 -55 -70 -203 -244 -289 -340 -55 -61 -406
-412 -441 -440 -14 -12 -59 -50 -100 -86 -41 -36 -113 -96 -160 -133 -47 -38
-84 -74 -84 -80 1 -6 38 -146 84 -311 45 -165 86 -313 90 -330 4 -16 37 -140
73 -275 35 -135 68 -258 72 -275 5 -16 9 -34 11 -40 46 -173 218 -875 255
-1040 27 -117 25 -109 44 -190 9 -38 19 -81 22 -95 2 -13 13 -60 23 -105 21
-89 89 -406 96 -445 3 -14 16 -81 30 -150 14 -69 28 -136 30 -150 2 -14 9 -45
14 -70 5 -25 14 -72 20 -105 5 -33 12 -71 15 -85 3 -14 12 -65 21 -115 8 -49
17 -101 20 -115 4 -26 41 -262 49 -315 12 -90 35 -267 40 -315 4 -30 8 -71 10
-90 6 -52 16 -176 20 -252 2 -37 6 -71 9 -76 3 -5 1510 -9 3512 -8 3274 1
3507 2 3510 18 1 9 5 72 9 139 3 68 8 125 9 128 2 4 7 42 10 87 4 44 8 91 11
103 2 12 7 52 11 89 3 37 7 69 9 72 2 3 6 30 10 60 3 30 11 84 16 120 6 36 12
76 14 90 6 43 42 254 80 465 3 17 28 145 56 285 28 140 53 266 56 280 2 13 13
60 23 105 10 45 21 92 24 105 2 14 14 68 26 120 12 52 23 104 25 115 5 21 11
51 21 95 3 14 7 36 10 49 3 14 7 28 9 31 2 4 7 22 10 41 3 19 17 81 31 139 14
58 28 116 30 129 3 14 7 28 9 31 2 4 7 21 10 38 5 29 23 105 76 317 11 44 22
87 24 95 5 26 85 340 115 455 46 173 81 309 85 325 18 67 78 289 95 350 11 41
35 125 51 185 17 61 34 124 39 140 25 86 40 141 40 148 0 8 -16 22 -106 94
-253 201 -589 527 -804 783 -30 36 -57 67 -60 70 -5 4 -103 125 -147 180 -6 8
-32 40 -56 70 -94 118 -369 508 -454 645 -230 371 -310 507 -433 735 -72 132
-350 684 -350 693 0 2 -22 51 -49 108 -67 144 -120 264 -181 410 -29 68 -58
138 -65 154 -7 17 -22 55 -34 85 -23 56 -34 83 -51 123 -5 12 -35 87 -66 167
-230 595 -479 1348 -648 1960 -4 14 -16 57 -27 95 -11 39 -29 102 -39 140 -10
39 -30 115 -45 170 -15 55 -28 107 -30 115 -2 8 -27 104 -54 213 -28 108 -60
237 -71 285 -11 48 -29 125 -40 172 -21 91 -106 469 -114 510 -2 14 -21 104
-41 200 -20 96 -43 207 -50 245 -7 39 -23 120 -34 180 -12 61 -24 121 -26 135
-3 14 -7 35 -9 47 -3 11 -8 43 -12 70 -5 26 -9 50 -9 53 -1 3 -4 25 -9 50 -4
25 -11 65 -16 90 -9 42 -12 65 -26 160 -2 19 -7 46 -10 60 -3 14 -8 41 -10 60
-2 19 -6 44 -9 56 -2 11 -7 40 -10 65 -3 24 -7 55 -10 69 -3 14 -8 45 -11 69
-3 24 -9 65 -14 90 -13 75 -9 93 25 104 96 31 154 166 117 275 -16 48 -69 108
-110 123 -68 26 -148 6 -199 -51 l-26 -30 -138 0 c-132 0 -138 1 -156 23 -38
49 -111 78 -172 69z"/>
<path d="M4686 929 c75 -47 148 -128 188 -210 20 -41 38 -84 41 -97 2 -13 7
-31 9 -40 9 -26 9 -153 2 -192 -29 -145 -125 -285 -245 -357 -23 -13 -41 -25
-41 -26 0 -1 1595 -2 3545 -2 1950 0 3545 3 3545 6 0 3 -17 15 -37 27 -53 30
-120 97 -164 165 -152 234 -83 559 152 716 l61 41 -3553 0 -3553 0 50 -31z"/>
</g>
</svg>
