<svg id="SvgjsSvg1001" width="288" height="288" xmlns="http://www.w3.org/2000/svg" version="1.1" xmlns:xlink="http://www.w3.org/1999/xlink" xmlns:svgjs="http://svgjs.com/svgjs"><defs id="SvgjsDefs1002"></defs><g id="SvgjsG1008" transform="matrix(0.9167,0,0,0.9167,11.995200000000011,11.984989836406726)"><svg xmlns="http://www.w3.org/2000/svg" data-name="Layer 1" viewBox="0 0 168 168" width="288" height="288"><circle cx="2" cy="150" r="2" fill="#003c7b" class="color2d4356 svgShape"></circle><path fill="#003c7b" d="M11 148H8a2 2 0 0 0 0 4h3a2 2 0 0 0 0-4zM160 148h-3a2 2 0 0 0 0 4h3a2 2 0 0 0 0-4z" class="color2d4356 svgShape"></path><circle cx="166" cy="150" r="2" fill="#003c7b" class="color2d4356 svgShape"></circle><path fill="#538eca" d="M118.15387 156h-8.30774a2.00641 2.00641 0 0 0 0 4h8.30774a2.00641 2.00641 0 0 0 0-4zM58.15387 156H49.84613a2.00641 2.00641 0 0 0 0 4h8.30774a2.00641 2.00641 0 0 0 0-4zM104 156H64a2 2 0 0 0 0 4H79.94v2H72a2 2 0 0 0 0 4H97a2 2 0 0 0 0-4H88.06v-2H104a2 2 0 0 0 0-4z" class="color0bceb2 svgShape"></path><path fill="#003c7b" d="M59,66V90a6.00684,6.00684,0,0,0,6,6h46a6.00684,6.00684,0,0,0,6-6V66a6.00684,6.00684,0,0,0-6-6H65A6.00684,6.00684,0,0,0,59,66Zm54,0V90a2.00006,2.00006,0,0,1-2,2H65a2.00006,2.00006,0,0,1-2-2V66a2.00006,2.00006,0,0,1,2-2h46A2.00006,2.00006,0,0,1,113,66Z" class="color2d4356 svgShape"></path><path fill="#538eca" d="M113 102H63a2 2 0 0 0 0 4h50a2 2 0 0 0 0-4zM113 112H63a2 2 0 0 0 0 4h50a2 2 0 0 0 0-4z" class="color0bceb2 svgShape"></path><path fill="#003c7b" d="M150.72131 148H126.9176A7.94053 7.94053 0 0 0 128 144V32a8.009 8.009 0 0 0-8-8H48a8.009 8.009 0 0 0-8 8V144a7.94058 7.94058 0 0 0 1.08246 4H17.27869a2.017 2.017 0 1 0 0 4H150.72131a2.017 2.017 0 1 0 0-4zM93.3324 28h18V49l-9-6-9 6zM91.44495 52.52661a3.99955 3.99955 0 0 0 4.10626-.19849l6.78119-4.52075 6.78119 4.52075A4 4 0 0 0 115.3324 49V28H120a3.99992 3.99992 0 0 1 4 4V140H52V36H89.3324V49A4 4 0 0 0 91.44495 52.52661zM48 148a4 4 0 0 1-4-4V32a4 4 0 0 1 4-4H89.3324v4H50a2.0001 2.0001 0 0 0-2 2V142a2.0001 2.0001 0 0 0 2 2h74a3.99992 3.99992 0 0 1-4 4zM57 16a3 3 0 1 0-3-3A3.00344 3.00344 0 0 0 57 16zm0-4.5A1.5 1.5 0 1 1 55.5 13 1.50148 1.50148 0 0 1 57 11.5zM146.25 45a2 2 0 1 0 2 2A2.00229 2.00229 0 0 0 146.25 45zm0 3a1 1 0 1 1 1-1A1.001 1.001 0 0 1 146.25 48zM111.3324 12.5a2 2 0 1 0 2 2A2.00229 2.00229 0 0 0 111.3324 12.5zm0 3a1 1 0 1 1 1-1A1.001 1.001 0 0 1 111.3324 15.5zM164 2.17324a2 2 0 1 0 2 2A2.00229 2.00229 0 0 0 164 2.17324zm0 3a1 1 0 1 1 1-1A1.001 1.001 0 0 1 164 5.17324zM15 60a2 2 0 1 0-2 2A2.00229 2.00229 0 0 0 15 60zm-3 0a1 1 0 1 1 1 1A1.001 1.001 0 0 1 12 60z" class="color2d4356 svgShape"></path><polygon fill="#538eca" points="27.611 30.487 29.098 28.532 28.159 28 27.204 30.19 27.173 30.19 26.203 28.015 25.248 28.563 26.719 30.472 26.719 30.503 24.418 30.206 24.418 31.27 26.734 30.973 26.734 31.004 25.248 32.912 26.139 33.476 27.157 31.27 27.188 31.27 28.127 33.46 29.113 32.897 27.611 31.019 27.611 30.988 29.973 31.27 29.973 30.206 27.611 30.519 27.611 30.487" class="color0bceb2 svgShape"></polygon><polygon fill="#538eca" points="3.734 10.153 2.878 11.252 3.392 11.577 3.978 10.306 3.996 10.306 4.536 11.568 5.104 11.243 4.239 10.162 4.239 10.144 5.599 10.306 5.599 9.694 4.239 9.874 4.239 9.856 5.095 8.73 4.555 8.423 4.005 9.684 3.987 9.684 3.429 8.432 2.878 8.747 3.726 9.847 3.726 9.865 2.401 9.694 2.401 10.306 3.734 10.135 3.734 10.153" class="color0bceb2 svgShape"></polygon><polygon fill="#538eca" points="144 19.207 144 18.164 141.683 18.47 141.683 18.44 143.142 16.522 142.221 16 141.285 18.148 141.253 18.148 140.302 16.015 139.365 16.552 140.808 18.425 140.808 18.455 138.552 18.164 138.552 19.207 140.823 18.916 140.823 18.947 139.365 20.818 140.24 21.371 141.238 19.207 141.268 19.207 142.189 21.356 143.156 20.803 141.683 18.962 141.683 18.931 144 19.207" class="color0bceb2 svgShape"></polygon><polygon fill="#538eca" points="86.701 3.961 87.959 2.307 87.165 1.857 86.357 3.709 86.33 3.709 85.51 1.869 84.702 2.333 85.947 3.948 85.947 3.975 84 3.723 84 4.623 85.96 4.372 85.96 4.398 84.702 6.013 85.456 6.49 86.317 4.623 86.343 4.623 87.138 6.476 87.972 6 86.701 4.411 86.701 4.385 88.7 4.623 88.7 3.723 86.701 3.988 86.701 3.961" class="color0bceb2 svgShape"></polygon></svg></g></svg>