<svg id="SvgjsSvg1001" width="288" height="288" xmlns="http://www.w3.org/2000/svg" version="1.1" xmlns:xlink="http://www.w3.org/1999/xlink" xmlns:svgjs="http://svgjs.com/svgjs"><defs id="SvgjsDefs1002"></defs><g id="SvgjsG1008" transform="matrix(0.9167,0,0,0.9167,11.995200000000011,11.995199642515189)"><svg xmlns="http://www.w3.org/2000/svg" data-name="Layer 1" viewBox="0 0 168 168" width="288" height="288"><path fill="#296eba" d="M118.15387 154h-8.30774a2.00641 2.00641 0 0 0 0 4h8.30774a2.00641 2.00641 0 0 0 0-4zM58.15387 154H49.84613a2.00641 2.00641 0 0 0 0 4h8.30774a2.00641 2.00641 0 0 0 0-4zM104 154H64a2 2 0 0 0 0 4H79.94v2H72a2 2 0 0 0 0 4H97a2 2 0 0 0 0-4H88.06v-2H104a2 2 0 0 0 0-4zM27.07465 113.00616a4.00005 4.00005 0 0 0 4.0719-.13092c.153-.09692 15.76471-9.87805 30.66516-9.87744 8.25488.00031 14.46851 2.91553 18.996 8.91235a4 4 0 0 0 6.3847 0c4.52765-5.99713 10.74023-8.91235 18.9928-8.91235 14.96124.00116 30.51337 9.77893 30.6687 9.87769A3.99994 3.99994 0 0 0 143 109.5V109a4.00012 4.00012 0 0 0-1.17206-2.829l-26.81-26.8a4.00017 4.00017 0 0 0-2.43665-1.15186 19.07025 19.07025 0 0 1-2.00641-.336 26.25322 26.25322 0 0 1-.98517 3.876A23.55851 23.55851 0 0 0 112.19 82.2L139 109v.5s-16.51648-10.501-32.81183-10.50226C98.91748 98.99719 91.69708 101.09857 86 107.144V102.15a5.88871 5.88871 0 0 1-4 0v4.99414c-5.69672-6.04431-12.91882-8.14606-20.18811-8.14636C45.51508 98.99713 29 109.5 29 109.5V109L55.81 82.2c.84381-.08215 1.72864-.2085 2.63031-.34882A26.26977 26.26977 0 0 1 57.4386 77.96c-.69879.10461-1.37683.19653-2.01611.25879A4.00007 4.00007 0 0 0 52.98212 79.371l-26.81 26.8A3.99993 3.99993 0 0 0 25 109v.5A4.00008 4.00008 0 0 0 27.07465 113.00616z" class="color0bceb2 svgShape"></path><path fill="#003c7b" d="M66.61084,87h.00244a2.00033,2.00033,0,0,0,1.67334-.9043l3.59845-5.4953C72.31763,81.71674,72.778,82.84814,73.277,84H74v6.5a2,2,0,0,0,4,0V84h4V96.5a2,2,0,0,0,4,0V84h4v6.5a2,2,0,0,0,4,0V84h.723c.49908-1.152.95947-2.28363,1.39209-3.40009l3.59875,5.49579A1.99821,1.99821,0,0,0,101.38672,87h.00293a1.99868,1.99868,0,0,0,1.67284-.90869c8.59407-13.19421.77491-25.54388-2.06725-29.29A43.01069,43.01069,0,0,0,84.16815,22.07172a.23292.23292,0,0,0-.33624,0A43.01051,43.01051,0,0,0,67.00482,56.8006c-2.8418,3.74524-10.66235,16.09576-2.06733,29.2912A2.00031,2.00031,0,0,0,66.61084,87Zm33.94757-23.35571c2.1001,4.25305,3.83441,10.62775.68768,17.49l-3.45349-5.2735A67.87679,67.87679,0,0,0,100.55841,63.64429ZM84,27.17249C97.85773,39.72968,100.69818,58.31818,92.05518,80H75.94482C67.30188,58.31812,70.14227,39.72961,84,27.17249ZM67.43121,63.56671a67.82672,67.82672,0,0,0,2.77606,12.2937L66.751,81.13916C63.5368,74.18829,65.3009,67.80347,67.43121,63.56671Z" class="color2d4356 svgShape"></path><path fill="#296eba" d="M84 61.14a8 8 0 1 0-8-8A8.009 8.009 0 0 0 84 61.14zm0-12a4 4 0 1 1-4 4A4 4 0 0 1 84 49.14zM87 68H81a2 2 0 0 0 0 4h6a2 2 0 0 0 0-4z" class="color0bceb2 svgShape"></path><circle cx="2" cy="148" r="2" fill="#003c7b" class="color2d4356 svgShape"></circle><path fill="#003c7b" d="M11 146H8a2 2 0 0 0 0 4h3a2 2 0 0 0 0-4zM160 146h-3a2 2 0 0 0 0 4h3a2 2 0 0 0 0-4z" class="color2d4356 svgShape"></path><circle cx="166" cy="148" r="2" fill="#003c7b" class="color2d4356 svgShape"></circle><path fill="#003c7b" d="M150.72131 146H134V136h4a2 2 0 0 0 0-4h-7.52179A8.99415 8.99415 0 0 0 123 118H91.43036c16.9245-16.27789 45.12067 3.423 45.40948 3.62939a2.00031 2.00031 0 0 0 2.32129-3.2583c-.32617-.23193-32.793-22.96484-51.92871-1.791A4.168 4.168 0 0 1 84.17334 118h-.34668a4.16538 4.16538 0 0 1-3.05859-1.41992c-19.13818-21.1748-51.603 1.55908-51.92871 1.791a2 2 0 0 0 2.32031 3.2583c.29022-.20587 28.48462-19.90826 45.40955-3.62939H40a2 2 0 0 0 0 4h4v10H40a2 2 0 0 0 0 4h7.52191a8.97431 8.97431 0 0 0 0 10H17.27869a2.017 2.017 0 1 0 0 4H150.72131a2.017 2.017 0 1 0 0-4zM48 122h75a5 5 0 0 1 0 10H48zm7 24a5 5 0 0 1 0-10h75v10zM21.49851 77.75224a3 3 0 1 0-3.946-1.55844A3.00344 3.00344 0 0 0 21.49851 77.75224zm-1.7907-4.12836a1.5 1.5 0 1 1-.77922 1.973A1.50148 1.50148 0 0 1 19.70781 73.62388zM159.30471 82a2 2 0 1 0 2 2A2.00229 2.00229 0 0 0 159.30471 82zm0 3a1 1 0 1 1 1-1A1.001 1.001 0 0 1 159.30471 85zM128.30471 65a2 2 0 1 0 2 2A2.00229 2.00229 0 0 0 128.30471 65zm0 3a1 1 0 1 1 1-1A1.001 1.001 0 0 1 128.30471 68zM158.30471 8a2 2 0 1 0 2 2A2.00229 2.00229 0 0 0 158.30471 8zm0 3a1 1 0 1 1 1-1A1.001 1.001 0 0 1 158.30471 11zM69.30471 6a2 2 0 1 0-2 2A2.00229 2.00229 0 0 0 69.30471 6zm-3 0a1 1 0 1 1 1 1A1.001 1.001 0 0 1 66.30471 6z" class="color2d4356 svgShape"></path><polygon fill="#296eba" points="39.888 41.011 41.375 39.056 40.436 38.524 39.481 40.714 39.45 40.714 38.48 38.539 37.525 39.087 38.996 40.996 38.996 41.027 36.695 40.73 36.695 41.794 39.011 41.497 39.011 41.528 37.525 43.436 38.416 44 39.434 41.794 39.465 41.794 40.404 43.984 41.39 43.421 39.888 41.543 39.888 41.512 42.25 41.794 42.25 40.73 39.888 41.042 39.888 41.011" class="color0bceb2 svgShape"></polygon><polygon fill="#296eba" points="10.081 17.067 9.225 18.166 9.739 18.49 10.325 17.22 10.342 17.22 10.883 18.481 11.451 18.157 10.586 17.075 10.586 17.057 11.946 17.22 11.946 16.607 10.586 16.787 10.586 16.769 11.442 15.643 10.902 15.337 10.352 16.598 10.334 16.598 9.775 15.345 9.225 15.661 10.072 16.76 10.072 16.778 8.747 16.607 8.747 17.22 10.081 17.049 10.081 17.067" class="color0bceb2 svgShape"></polygon><polygon fill="#296eba" points="141.305 33.713 141.305 32.67 138.988 32.977 138.988 32.946 140.446 31.028 139.525 30.506 138.589 32.654 138.558 32.654 137.607 30.521 136.67 31.059 138.113 32.931 138.113 32.962 135.856 32.67 135.856 33.713 138.128 33.422 138.128 33.453 136.67 35.325 137.545 35.878 138.543 33.713 138.573 33.713 139.494 35.862 140.461 35.31 138.988 33.468 138.988 33.437 141.305 33.713" class="color0bceb2 svgShape"></polygon><polygon fill="#296eba" points="114.745 15.581 115.981 13.91 115.181 13.471 114.398 15.334 114.371 15.334 113.527 13.505 112.725 13.979 113.99 15.578 113.991 15.605 112.041 15.378 112.053 16.278 114.009 16.002 114.009 16.028 112.773 17.659 113.533 18.126 114.37 16.248 114.396 16.248 115.214 18.091 116.042 17.603 114.751 16.031 114.751 16.005 116.752 16.217 116.74 15.317 114.745 15.608 114.745 15.581" class="color0bceb2 svgShape"></polygon></svg></g></svg>