<svg id="SvgjsSvg1001" width="288" height="288" xmlns="http://www.w3.org/2000/svg" version="1.1" xmlns:xlink="http://www.w3.org/1999/xlink" xmlns:svgjs="http://svgjs.com/svgjs"><defs id="SvgjsDefs1002"></defs><g id="SvgjsG1008" transform="matrix(0.9167,0,0,0.9167,11.995200000000011,11.995224666452401)"><svg xmlns="http://www.w3.org/2000/svg" data-name="Layer 1" viewBox="0 0 168 168" width="288" height="288"><path fill="#2f76b9" d="M33.99993,67.15836a10,10,0,1,0,10-10A10.01146,10.01146,0,0,0,33.99993,67.15836Zm16,0a6,6,0,1,1-6-6A6.00656,6.00656,0,0,1,49.99993,67.15836Z" class="color0bceb2 svgShape"></path><path fill="#003c7b" d="M21.58928,75.90446a1.99645,1.99645,0,0,0,2.26514-1.208,15.42518,15.42518,0,0,1,6.16711-7.11139c-.00433-.143-.02161-.28265-.02161-.4267a13.91483,13.91483,0,0,1,.75421-4.496,22.85363,22.85363,0,0,0-5.77863,3.75189c2.208-9.60547,8.03906-18.44434,16.90723-25.43555C51.69554,33.243,64.26525,28.52964,77.7863,27.4185c-6.14215,5.35522-14.6026,17.08594-16.45789,41.55725a20.27689,20.27689,0,0,0-3.43353-3.46008,13.31639,13.31639,0,0,1-.35162,5.127,13.72285,13.72285,0,0,1,2.91467,5.09674,1.99969,1.99969,0,0,0,1.91357,1.41895h1.01611a1.99984,1.99984,0,0,0,1.94482-1.53418C66.897,69.0947,73.74675,64.23038,81.99993,63.541v.7876a11.83413,11.83413,0,0,1,4,0v-.79047c8.26538.68085,15.12848,5.54932,16.69482,12.08606a1.99984,1.99984,0,0,0,1.94482,1.53418h.78271a1.99984,1.99984,0,0,0,1.94482-1.53418,14.06784,14.06784,0,0,1,4.79968-7.41913,13.2966,13.2966,0,0,1,.15332-5.00153,21.13582,21.13582,0,0,0-5.70221,5.04883c-1.9649-23.983-10.32227-35.53088-16.40405-40.83362,26.19708,2.12933,47.40015,17.59692,52.61029,37.99255a22.24842,22.24842,0,0,0-3.16443-2.28552,13.23259,13.23259,0,0,1,.18567,4.99878,14.77593,14.77593,0,0,1,4.30347,5.71448,2.00017,2.00017,0,0,0,3.84863-.85937c-1.40112-27.5957-28.84442-49.2699-62.72668-49.79639a1.96209,1.96209,0,0,0-.5177-.01025c-.24731-.00226-.49152-.01465-.7395-.01465-.256,0-.50977.01245-.76538.01489a1.95109,1.95109,0,0,0-.51453.01c-16.28217.259-31.62653,5.42987-43.32751,14.65381-12.1084,9.5459-19,22.34863-19.40527,36.05078A1.999,1.999,0,0,0,21.58928,75.90446ZM83.99974,27.88468c4.32318,2.54407,15.85175,11.82568,18.49829,39.22461C98.26122,62.42258,91.47887,59.4484,84.0136,59.4484c-7.48907,0-14.283,2.998-18.51685,7.71014C68.13408,39.72111,79.67375,30.43058,83.99974,27.88468Z" class="color2d4356 svgShape"></path><path fill="#2f76b9" d="M115.99993,66.15836a10,10,0,1,0,10-10A10.01146,10.01146,0,0,0,115.99993,66.15836Zm16,0a6,6,0,1,1-6-6A6.00656,6.00656,0,0,1,131.99993,66.15836Z" class="color0bceb2 svgShape"></path><path fill="#003c7b" d="M107.99993 87.15836a8.00917 8.00917 0 0 1 8-8h4.83368a14.05 14.05 0 0 1-5.51093-3.9657 11.99751 11.99751 0 0 0-11.2973 11.44617 15.9162 15.9162 0 0 1 3.97455 10.51953zM55.37718 75.28593a14.08819 14.08819 0 0 1-4.20337 3.87244h2.76166a5.19255 5.19255 0 0 1 5.09668 5.27246l1.4649 8.84167a15.94468 15.94468 0 0 1 3.01782-6.09418l-.48419-2.9223A9.22364 9.22364 0 0 0 55.37718 75.28593z" class="color2d4356 svgShape"></path><path fill="#2f76b9" d="M74.99993 77.15836a9 9 0 1 0 9-9A9.01015 9.01015 0 0 0 74.99993 77.15836zm14 0a5 5 0 1 1-5-5A5.00589 5.00589 0 0 1 88.99993 77.15836zM118.15387 155.15836h-8.30774a2.00641 2.00641 0 0 0 0 4h8.30774a2.00641 2.00641 0 0 0 0-4zM58.15387 155.15836H49.84613a2.00641 2.00641 0 0 0 0 4h8.30774a2.00641 2.00641 0 0 0 0-4zM104 155.15836H64a2 2 0 0 0 0 4H79.94v2H72a2 2 0 0 0 0 4H97a2 2 0 0 0 0-4H88.06v-2H104a2 2 0 0 0 0-4z" class="color0bceb2 svgShape"></path><circle cx="2" cy="149.158" r="2" fill="#003c7b" class="color2d4356 svgShape"></circle><path fill="#003c7b" d="M11 147.15836H8a2 2 0 0 0 0 4h3a2 2 0 0 0 0-4zM160 147.15836h-3a2 2 0 0 0 0 4h3a2 2 0 0 0 0-4z" class="color2d4356 svgShape"></path><circle cx="166" cy="149.158" r="2" fill="#003c7b" class="color2d4356 svgShape"></circle><path fill="#003c7b" d="M150.72131 147.15836h-12.7998a4.92993 4.92993 0 0 0 .07843-.80371V121.15836h4a6.00656 6.00656 0 0 0 6-6v-28a12.00463 12.00463 0 0 0-11.32275-11.9657 14.05 14.05 0 0 1-5.51093 3.9657h4.83368a8.00917 8.00917 0 0 1 8 8v28a2.00229 2.00229 0 0 1-2 2h-4v-22a2 2 0 0 0-4 0v51.19629a.74545.74545 0 0 1-.63721.80371h-5.36279v-30a2 2 0 0 0-4 0v30h-5.36279a.74545.74545 0 0 1-.63721-.80371V95.15836a2 2 0 0 0-4 0v22h-4a2.00229 2.00229 0 0 1-2-2v4a9.98087 9.98087 0 0 1-.14014 1.59863 5.95883 5.95883 0 0 0 2.14014.40137h4v25.19629a4.92993 4.92993 0 0 0 .07843.80371H93.96313c.01093-.13013.0368-.25555.0368-.38867V125.15836h4a6.00656 6.00656 0 0 0 6-6v-23c0-5.7085-4.05365-10.0036-9.89362-10.8407a13.05962 13.05962 0 0 1-5.11438 3.8407h3.008c3.853 0 8 2.19043 8 7v23a2.00229 2.00229 0 0 1-2 2h-4v-14a2 2 0 0 0-4 0v39.61133a.77236.77236 0 0 1-.10986.38867H85.99994v-26a2 2 0 0 0-4 0v26H78.14587a.48477.48477 0 0 1-.14594-.38867V107.15836a2 2 0 0 0-4 0v14h-4a2.00229 2.00229 0 0 1-2-2v-23c0-4.80957 4.147-7 8-7h3.008a13.05962 13.05962 0 0 1-5.11438-3.8407c-5.8399.8371-9.89362 5.1322-9.89362 10.8407v23a6.00656 6.00656 0 0 0 6 6h4v21.61133c0 .13312.02588.25854.0368.38867H55.90735a5.343 5.343 0 0 0 .09259-.98437V123.15836h2.58789a3.37093 3.37093 0 0 0 1.99756-.66125 9.93288 9.93288 0 0 1-.58545-3.33875v-9.5675L56.54584 92.756a1.99988 1.99988 0 0 0-3.918.80469l5.252 25.59766H30.12006l5.252-25.59766a1.99988 1.99988 0 0 0-3.918-.80469L26.8576 115.15836h-2.0188a.866.866 0 0 1-.83154-.78809l4.93311-29.61035.02734-.3291a5.19255 5.19255 0 0 1 5.09668-5.27246H36.826a14.08819 14.08819 0 0 1-4.20337-3.87244 9.22364 9.22364 0 0 0-7.6535 8.97009l-4.94189 29.66406-.02734.3291a4.88 4.88 0 0 0 4.83887 4.90918h1.20111l-.00189.01074a3.51206 3.51206 0 0 0 .812 2.81055 3.38733 3.38733 0 0 0 2.562 1.17871h2.58789V146.174a5.343 5.343 0 0 0 .09259.98438H17.27869a2.017 2.017 0 1 0 0 4H150.72131a2.017 2.017 0 1 0 0-4zm-114.08417 0c-.30078 0-.63721-.4209-.63721-.98437V123.15836h6v24zm9.36279 0v-24h6V146.174c0 .56348-.33643.98438-.63721.98438zM102.498 21.56972a3 3 0 1 0-3-3A3.00344 3.00344 0 0 0 102.498 21.56972zm0-4.5a1.5 1.5 0 1 1-1.5 1.5A1.50148 1.50148 0 0 1 102.498 17.06972zM158.30471 69.15836a2 2 0 1 0 2 2A2.00229 2.00229 0 0 0 158.30471 69.15836zm0 3a1 1 0 1 1 1-1A1.001 1.001 0 0 1 158.30471 72.15836zM7.69529 7.15836a2 2 0 1 0 2 2A2.00229 2.00229 0 0 0 7.69529 7.15836zm0 3a1 1 0 1 1 1-1A1.001 1.001 0 0 1 7.69529 10.15836zM144.40071 45.35035a2 2 0 1 0 2 2A2.00229 2.00229 0 0 0 144.40071 45.35035zm0 3a1 1 0 1 1 1-1A1.001 1.001 0 0 1 144.40071 48.35035zM29.5 34.07179a2 2 0 1 0-2 2A2.00229 2.00229 0 0 0 29.5 34.07179zm-3 0a1 1 0 1 1 1 1A1.001 1.001 0 0 1 26.5 34.07179z" class="color2d4356 svgShape"></path><polygon fill="#2f76b9" points="10.888 69.17 12.375 67.214 11.436 66.682 10.481 68.872 10.45 68.872 9.48 66.698 8.525 67.245 9.996 69.154 9.996 69.186 7.695 68.888 7.695 69.952 10.011 69.655 10.011 69.686 8.525 71.595 9.416 72.158 10.434 69.952 10.465 69.952 11.404 72.142 12.39 71.579 10.888 69.702 10.888 69.67 13.25 69.952 13.25 68.888 10.888 69.201 10.888 69.17" class="color0bceb2 svgShape"></polygon><polygon fill="#2f76b9" points="137.334 7.312 136.478 8.411 136.991 8.735 137.577 7.464 137.595 7.464 138.136 8.726 138.703 8.402 137.838 7.32 137.838 7.302 139.199 7.464 139.199 6.852 137.838 7.032 137.838 7.014 138.695 5.888 138.154 5.582 137.604 6.843 137.586 6.843 137.028 5.59 136.478 5.906 137.325 7.005 137.325 7.023 136 6.852 136 7.464 137.334 7.294 137.334 7.312" class="color0bceb2 svgShape"></polygon><polygon fill="#2f76b9" points="163.029 26.365 163.029 25.322 160.712 25.629 160.712 25.598 162.17 23.68 161.249 23.158 160.313 25.306 160.282 25.306 159.331 23.173 158.394 23.711 159.837 25.583 159.837 25.614 157.581 25.322 157.581 26.365 159.852 26.074 159.852 26.105 158.394 27.977 159.269 28.53 160.267 26.365 160.297 26.365 161.218 28.514 162.185 27.962 160.712 26.12 160.712 26.089 163.029 26.365" class="color0bceb2 svgShape"></polygon><polygon fill="#2f76b9" points="57.696 4.946 58.954 3.292 58.159 2.842 57.352 4.695 57.325 4.695 56.505 2.855 55.696 3.318 56.941 4.933 56.941 4.96 54.995 4.708 54.995 5.608 56.954 5.357 56.954 5.383 55.696 6.998 56.451 7.475 57.312 5.608 57.338 5.608 58.132 7.462 58.967 6.985 57.696 5.396 57.696 5.37 59.694 5.608 59.694 4.708 57.696 4.973 57.696 4.946" class="color0bceb2 svgShape"></polygon></svg></g></svg>